<mxfile modified="2021-11-29T05:19:24.609Z" host="app.diagrams.net" agent="5.0 (Windows NT 10.0; Win64; x64) AppleWebKit/537.36 (KHTML, like Gecko) Chrome/96.0.4664.45 Safari/537.36" etag="F7_jqQHkF4M8cidYehIz" version="15.8.6" type="github">
  <diagram id="Ht1M8jgEwFfnCIfOTk4-" name="Page-1">
    <mxGraphModel dx="2591" dy="762" grid="1" gridSize="10" guides="1" tooltips="1" connect="1" arrows="1" fold="1" page="1" pageScale="1" pageWidth="1169" pageHeight="827" math="0" shadow="0">
      <root>
        <mxCell id="0" />
        <mxCell id="1" parent="0" />
        <mxCell id="1U2CzZ8APMVsvw0f16Q_-3" value="Region / ap-northeast-2" style="points=[[0,0],[0.25,0],[0.5,0],[0.75,0],[1,0],[1,0.25],[1,0.5],[1,0.75],[1,1],[0.75,1],[0.5,1],[0.25,1],[0,1],[0,0.75],[0,0.5],[0,0.25]];outlineConnect=0;gradientColor=none;html=1;whiteSpace=wrap;fontSize=12;fontStyle=0;shape=mxgraph.aws4.group;grIcon=mxgraph.aws4.group_region;strokeColor=#147EBA;fillColor=none;verticalAlign=top;align=left;spacingLeft=30;fontColor=#147EBA;dashed=1;" vertex="1" parent="1">
          <mxGeometry x="-190" y="130" width="1120" height="660" as="geometry" />
        </mxCell>
        <mxCell id="1U2CzZ8APMVsvw0f16Q_-2" value="VPC / 10.100.0.0/24" style="points=[[0,0],[0.25,0],[0.5,0],[0.75,0],[1,0],[1,0.25],[1,0.5],[1,0.75],[1,1],[0.75,1],[0.5,1],[0.25,1],[0,1],[0,0.75],[0,0.5],[0,0.25]];outlineConnect=0;gradientColor=none;html=1;whiteSpace=wrap;fontSize=12;fontStyle=0;shape=mxgraph.aws4.group;grIcon=mxgraph.aws4.group_vpc;strokeColor=#248814;fillColor=none;verticalAlign=top;align=left;spacingLeft=30;fontColor=#AAB7B8;dashed=0;" vertex="1" parent="1">
          <mxGeometry x="200" y="160" width="710" height="610" as="geometry" />
        </mxCell>
        <mxCell id="1U2CzZ8APMVsvw0f16Q_-5" value="Availability Zone a" style="fillColor=none;strokeColor=#147EBA;dashed=1;verticalAlign=top;fontStyle=0;fontColor=#147EBA;" vertex="1" parent="1">
          <mxGeometry x="220" y="260" width="670" height="220" as="geometry" />
        </mxCell>
        <mxCell id="1U2CzZ8APMVsvw0f16Q_-6" value="Availability Zone c" style="fillColor=none;strokeColor=#147EBA;dashed=1;verticalAlign=top;fontStyle=0;fontColor=#147EBA;" vertex="1" parent="1">
          <mxGeometry x="220" y="520" width="670" height="230" as="geometry" />
        </mxCell>
        <mxCell id="1U2CzZ8APMVsvw0f16Q_-7" value="Public subnet1 / 10.100.0.0/26" style="points=[[0,0],[0.25,0],[0.5,0],[0.75,0],[1,0],[1,0.25],[1,0.5],[1,0.75],[1,1],[0.75,1],[0.5,1],[0.25,1],[0,1],[0,0.75],[0,0.5],[0,0.25]];outlineConnect=0;gradientColor=none;html=1;whiteSpace=wrap;fontSize=12;fontStyle=0;shape=mxgraph.aws4.group;grIcon=mxgraph.aws4.group_security_group;grStroke=0;strokeColor=#248814;fillColor=#E9F3E6;verticalAlign=top;align=left;spacingLeft=30;fontColor=#248814;dashed=0;" vertex="1" parent="1">
          <mxGeometry x="240" y="290" width="300" height="180" as="geometry" />
        </mxCell>
        <mxCell id="1U2CzZ8APMVsvw0f16Q_-8" value="Public subnet2 / 10.100.0.128/26" style="points=[[0,0],[0.25,0],[0.5,0],[0.75,0],[1,0],[1,0.25],[1,0.5],[1,0.75],[1,1],[0.75,1],[0.5,1],[0.25,1],[0,1],[0,0.75],[0,0.5],[0,0.25]];outlineConnect=0;gradientColor=none;html=1;whiteSpace=wrap;fontSize=12;fontStyle=0;shape=mxgraph.aws4.group;grIcon=mxgraph.aws4.group_security_group;grStroke=0;strokeColor=#248814;fillColor=#E9F3E6;verticalAlign=top;align=left;spacingLeft=30;fontColor=#248814;dashed=0;" vertex="1" parent="1">
          <mxGeometry x="570" y="290" width="300" height="180" as="geometry" />
        </mxCell>
        <mxCell id="1U2CzZ8APMVsvw0f16Q_-10" value="Private subnet1 / 10.100.0.64/26" style="points=[[0,0],[0.25,0],[0.5,0],[0.75,0],[1,0],[1,0.25],[1,0.5],[1,0.75],[1,1],[0.75,1],[0.5,1],[0.25,1],[0,1],[0,0.75],[0,0.5],[0,0.25]];outlineConnect=0;gradientColor=none;html=1;whiteSpace=wrap;fontSize=12;fontStyle=0;shape=mxgraph.aws4.group;grIcon=mxgraph.aws4.group_security_group;grStroke=0;strokeColor=#147EBA;fillColor=#E6F2F8;verticalAlign=top;align=left;spacingLeft=30;fontColor=#147EBA;dashed=0;" vertex="1" parent="1">
          <mxGeometry x="240" y="549" width="300" height="190" as="geometry" />
        </mxCell>
        <mxCell id="1U2CzZ8APMVsvw0f16Q_-11" value="Private subnet2 / 10.100.0.192/26" style="points=[[0,0],[0.25,0],[0.5,0],[0.75,0],[1,0],[1,0.25],[1,0.5],[1,0.75],[1,1],[0.75,1],[0.5,1],[0.25,1],[0,1],[0,0.75],[0,0.5],[0,0.25]];outlineConnect=0;gradientColor=none;html=1;whiteSpace=wrap;fontSize=12;fontStyle=0;shape=mxgraph.aws4.group;grIcon=mxgraph.aws4.group_security_group;grStroke=0;strokeColor=#147EBA;fillColor=#E6F2F8;verticalAlign=top;align=left;spacingLeft=30;fontColor=#147EBA;dashed=0;" vertex="1" parent="1">
          <mxGeometry x="570" y="550" width="300" height="190" as="geometry" />
        </mxCell>
        <mxCell id="1U2CzZ8APMVsvw0f16Q_-12" value="" style="edgeStyle=orthogonalEdgeStyle;html=1;endArrow=block;elbow=vertical;startArrow=block;startFill=1;endFill=1;strokeColor=#545B64;rounded=0;entryX=0.487;entryY=0.051;entryDx=0;entryDy=0;entryPerimeter=0;" edge="1" parent="1" source="1U2CzZ8APMVsvw0f16Q_-13" target="1U2CzZ8APMVsvw0f16Q_-23">
          <mxGeometry width="100" relative="1" as="geometry">
            <mxPoint x="554.5" y="110" as="sourcePoint" />
            <mxPoint x="554.5" y="190" as="targetPoint" />
          </mxGeometry>
        </mxCell>
        <mxCell id="1U2CzZ8APMVsvw0f16Q_-13" value="" style="sketch=0;outlineConnect=0;fontColor=#232F3E;gradientColor=none;fillColor=#232F3D;strokeColor=none;dashed=0;verticalLabelPosition=bottom;verticalAlign=top;align=center;html=1;fontSize=12;fontStyle=0;aspect=fixed;pointerEvents=1;shape=mxgraph.aws4.internet;" vertex="1" parent="1">
          <mxGeometry x="515" y="50" width="78" height="48" as="geometry" />
        </mxCell>
        <mxCell id="1U2CzZ8APMVsvw0f16Q_-14" value="Internet" style="text;html=1;strokeColor=none;fillColor=none;align=center;verticalAlign=middle;whiteSpace=wrap;rounded=0;" vertex="1" parent="1">
          <mxGeometry x="523" y="20" width="60" height="30" as="geometry" />
        </mxCell>
        <mxCell id="1U2CzZ8APMVsvw0f16Q_-19" value="" style="sketch=0;outlineConnect=0;fontColor=#232F3E;gradientColor=none;fillColor=#D45B07;strokeColor=none;dashed=0;verticalLabelPosition=bottom;verticalAlign=top;align=center;html=1;fontSize=12;fontStyle=0;aspect=fixed;pointerEvents=1;shape=mxgraph.aws4.t3_instance;" vertex="1" parent="1">
          <mxGeometry x="420" y="615" width="70" height="70" as="geometry" />
        </mxCell>
        <mxCell id="1U2CzZ8APMVsvw0f16Q_-20" value="bullida-dev-vpc-controll-host" style="text;html=1;strokeColor=none;fillColor=none;align=center;verticalAlign=middle;whiteSpace=wrap;rounded=0;" vertex="1" parent="1">
          <mxGeometry x="399" y="690" width="120" height="30" as="geometry" />
        </mxCell>
        <mxCell id="1U2CzZ8APMVsvw0f16Q_-21" value="" style="sketch=0;outlineConnect=0;fontColor=#232F3E;gradientColor=none;fillColor=#2E27AD;strokeColor=none;dashed=0;verticalLabelPosition=bottom;verticalAlign=top;align=center;html=1;fontSize=12;fontStyle=0;aspect=fixed;pointerEvents=1;shape=mxgraph.aws4.rds_mariadb_instance;" vertex="1" parent="1">
          <mxGeometry x="296" y="591" width="78" height="78" as="geometry" />
        </mxCell>
        <mxCell id="1U2CzZ8APMVsvw0f16Q_-23" value="" style="sketch=0;outlineConnect=0;fontColor=#232F3E;gradientColor=none;fillColor=#4D27AA;strokeColor=none;dashed=0;verticalLabelPosition=bottom;verticalAlign=top;align=center;html=1;fontSize=12;fontStyle=0;aspect=fixed;pointerEvents=1;shape=mxgraph.aws4.internet_gateway;" vertex="1" parent="1">
          <mxGeometry x="516" y="160" width="78" height="78" as="geometry" />
        </mxCell>
        <mxCell id="1U2CzZ8APMVsvw0f16Q_-24" value="" style="sketch=0;outlineConnect=0;fontColor=#232F3E;gradientColor=none;fillColor=#D45B07;strokeColor=none;dashed=0;verticalLabelPosition=bottom;verticalAlign=top;align=center;html=1;fontSize=12;fontStyle=0;aspect=fixed;pointerEvents=1;shape=mxgraph.aws4.t3_instance;" vertex="1" parent="1">
          <mxGeometry x="300" y="345" width="70" height="70" as="geometry" />
        </mxCell>
        <mxCell id="1U2CzZ8APMVsvw0f16Q_-25" value="bullida-dev-vpc-was1" style="text;html=1;strokeColor=none;fillColor=none;align=center;verticalAlign=middle;whiteSpace=wrap;rounded=0;" vertex="1" parent="1">
          <mxGeometry x="275" y="315" width="120" height="30" as="geometry" />
        </mxCell>
        <mxCell id="1U2CzZ8APMVsvw0f16Q_-26" value="" style="sketch=0;outlineConnect=0;fontColor=#232F3E;gradientColor=none;fillColor=#4D27AA;strokeColor=none;dashed=0;verticalLabelPosition=bottom;verticalAlign=top;align=center;html=1;fontSize=12;fontStyle=0;aspect=fixed;pointerEvents=1;shape=mxgraph.aws4.nat_gateway;" vertex="1" parent="1">
          <mxGeometry x="420" y="345" width="78" height="78" as="geometry" />
        </mxCell>
        <mxCell id="1U2CzZ8APMVsvw0f16Q_-27" value="" style="edgeStyle=orthogonalEdgeStyle;html=1;endArrow=block;elbow=vertical;startArrow=block;startFill=1;endFill=1;strokeColor=#545B64;rounded=0;" edge="1" parent="1">
          <mxGeometry width="100" relative="1" as="geometry">
            <mxPoint x="335" y="290" as="sourcePoint" />
            <mxPoint x="516" y="198.5" as="targetPoint" />
            <Array as="points">
              <mxPoint x="335" y="199" />
            </Array>
          </mxGeometry>
        </mxCell>
        <mxCell id="1U2CzZ8APMVsvw0f16Q_-28" value="" style="edgeStyle=orthogonalEdgeStyle;html=1;endArrow=block;elbow=vertical;startArrow=block;startFill=1;endFill=1;strokeColor=#545B64;rounded=0;" edge="1" parent="1" source="1U2CzZ8APMVsvw0f16Q_-8">
          <mxGeometry width="100" relative="1" as="geometry">
            <mxPoint x="778" y="281" as="sourcePoint" />
            <mxPoint x="594" y="199.5" as="targetPoint" />
            <Array as="points">
              <mxPoint x="778" y="200" />
            </Array>
          </mxGeometry>
        </mxCell>
        <mxCell id="1U2CzZ8APMVsvw0f16Q_-29" value="" style="edgeStyle=orthogonalEdgeStyle;html=1;endArrow=block;elbow=vertical;startArrow=none;endFill=1;strokeColor=#545B64;rounded=0;" edge="1" parent="1">
          <mxGeometry width="100" relative="1" as="geometry">
            <mxPoint x="460" y="345" as="sourcePoint" />
            <mxPoint x="460" y="200" as="targetPoint" />
          </mxGeometry>
        </mxCell>
        <mxCell id="1U2CzZ8APMVsvw0f16Q_-30" value="" style="edgeStyle=orthogonalEdgeStyle;html=1;endArrow=block;elbow=vertical;startArrow=none;endFill=1;strokeColor=#545B64;rounded=0;" edge="1" parent="1" source="1U2CzZ8APMVsvw0f16Q_-10">
          <mxGeometry width="100" relative="1" as="geometry">
            <mxPoint x="459" y="540" as="sourcePoint" />
            <mxPoint x="458.5" y="423" as="targetPoint" />
            <Array as="points" />
          </mxGeometry>
        </mxCell>
        <mxCell id="1U2CzZ8APMVsvw0f16Q_-32" value="" style="sketch=0;points=[[0,0,0],[0.25,0,0],[0.5,0,0],[0.75,0,0],[1,0,0],[0,1,0],[0.25,1,0],[0.5,1,0],[0.75,1,0],[1,1,0],[0,0.25,0],[0,0.5,0],[0,0.75,0],[1,0.25,0],[1,0.5,0],[1,0.75,0]];outlineConnect=0;fontColor=#232F3E;gradientColor=#60A337;gradientDirection=north;fillColor=#277116;strokeColor=#ffffff;dashed=0;verticalLabelPosition=bottom;verticalAlign=top;align=center;html=1;fontSize=12;fontStyle=0;aspect=fixed;shape=mxgraph.aws4.resourceIcon;resIcon=mxgraph.aws4.s3;" vertex="1" parent="1">
          <mxGeometry x="-78" y="341" width="78" height="78" as="geometry" />
        </mxCell>
        <mxCell id="1U2CzZ8APMVsvw0f16Q_-34" value="" style="edgeStyle=orthogonalEdgeStyle;html=1;endArrow=block;elbow=vertical;startArrow=block;startFill=1;endFill=1;strokeColor=#545B64;rounded=0;" edge="1" parent="1" target="1U2CzZ8APMVsvw0f16Q_-24">
          <mxGeometry width="100" relative="1" as="geometry">
            <mxPoint y="379.5" as="sourcePoint" />
            <mxPoint x="100" y="379.5" as="targetPoint" />
          </mxGeometry>
        </mxCell>
        <mxCell id="1U2CzZ8APMVsvw0f16Q_-35" value="" style="edgeStyle=orthogonalEdgeStyle;html=1;endArrow=block;elbow=vertical;startArrow=block;startFill=1;endFill=1;strokeColor=#545B64;rounded=0;" edge="1" parent="1">
          <mxGeometry width="100" relative="1" as="geometry">
            <mxPoint x="348" y="415" as="sourcePoint" />
            <mxPoint x="348" y="615.0975643037457" as="targetPoint" />
          </mxGeometry>
        </mxCell>
        <mxCell id="1U2CzZ8APMVsvw0f16Q_-37" value="" style="sketch=0;points=[[0,0,0],[0.25,0,0],[0.5,0,0],[0.75,0,0],[1,0,0],[0,1,0],[0.25,1,0],[0.5,1,0],[0.75,1,0],[1,1,0],[0,0.25,0],[0,0.5,0],[0,0.75,0],[1,0.25,0],[1,0.5,0],[1,0.75,0]];points=[[0,0,0],[0.25,0,0],[0.5,0,0],[0.75,0,0],[1,0,0],[0,1,0],[0.25,1,0],[0.5,1,0],[0.75,1,0],[1,1,0],[0,0.25,0],[0,0.5,0],[0,0.75,0],[1,0.25,0],[1,0.5,0],[1,0.75,0]];outlineConnect=0;fontColor=#232F3E;gradientColor=#F34482;gradientDirection=north;fillColor=#BC1356;strokeColor=#ffffff;dashed=0;verticalLabelPosition=bottom;verticalAlign=top;align=center;html=1;fontSize=12;fontStyle=0;aspect=fixed;shape=mxgraph.aws4.resourceIcon;resIcon=mxgraph.aws4.systems_manager;" vertex="1" parent="1">
          <mxGeometry x="-78" y="460" width="78" height="78" as="geometry" />
        </mxCell>
        <mxCell id="1U2CzZ8APMVsvw0f16Q_-38" value="" style="edgeStyle=orthogonalEdgeStyle;html=1;endArrow=block;elbow=vertical;startArrow=block;startFill=1;endFill=1;strokeColor=#545B64;rounded=0;entryX=1;entryY=0.5;entryDx=0;entryDy=0;entryPerimeter=0;" edge="1" parent="1" target="1U2CzZ8APMVsvw0f16Q_-37">
          <mxGeometry width="100" relative="1" as="geometry">
            <mxPoint x="330" y="415" as="sourcePoint" />
            <mxPoint x="330" y="615.0975643037457" as="targetPoint" />
            <Array as="points">
              <mxPoint x="330" y="499" />
            </Array>
          </mxGeometry>
        </mxCell>
        <mxCell id="1U2CzZ8APMVsvw0f16Q_-39" value="" style="edgeStyle=orthogonalEdgeStyle;html=1;endArrow=block;elbow=vertical;startArrow=none;endFill=1;strokeColor=#545B64;rounded=0;exitX=1;exitY=0.5;exitDx=0;exitDy=0;exitPerimeter=0;" edge="1" parent="1" source="1U2CzZ8APMVsvw0f16Q_-37" target="1U2CzZ8APMVsvw0f16Q_-19">
          <mxGeometry width="100" relative="1" as="geometry">
            <mxPoint x="460" y="410" as="sourcePoint" />
            <mxPoint x="560" y="410" as="targetPoint" />
          </mxGeometry>
        </mxCell>
        <mxCell id="1U2CzZ8APMVsvw0f16Q_-40" value="" style="edgeStyle=orthogonalEdgeStyle;html=1;endArrow=block;elbow=vertical;startArrow=none;endFill=1;strokeColor=#545B64;rounded=0;exitX=0.5;exitY=0;exitDx=0;exitDy=0;" edge="1" parent="1" source="1U2CzZ8APMVsvw0f16Q_-11" target="1U2CzZ8APMVsvw0f16Q_-26">
          <mxGeometry width="100" relative="1" as="geometry">
            <mxPoint x="400" y="559" as="sourcePoint" />
            <mxPoint x="468.5" y="433" as="targetPoint" />
            <Array as="points" />
          </mxGeometry>
        </mxCell>
        <mxCell id="1U2CzZ8APMVsvw0f16Q_-41" value="S3" style="text;html=1;strokeColor=none;fillColor=none;align=center;verticalAlign=middle;whiteSpace=wrap;rounded=0;" vertex="1" parent="1">
          <mxGeometry x="-69" y="311" width="60" height="30" as="geometry" />
        </mxCell>
        <mxCell id="1U2CzZ8APMVsvw0f16Q_-42" value="SSM" style="text;html=1;strokeColor=none;fillColor=none;align=center;verticalAlign=middle;whiteSpace=wrap;rounded=0;" vertex="1" parent="1">
          <mxGeometry x="-69" y="430" width="60" height="30" as="geometry" />
        </mxCell>
      </root>
    </mxGraphModel>
  </diagram>
</mxfile>
